HIERARCHY
ROOT Hips
{
	OFFSET -0.001795 -0.223333 0.028219
	CHANNELS 6 Xposition Yposition Zposition Zrotation Yrotation Xrotation 
	JOINT LeftUpLeg
	{
		OFFSET 0.069520 -0.091406 -0.006815
		CHANNELS 3 Zrotation Yrotation Xrotation
		JOINT LeftLeg
		{
			OFFSET 0.034277 -0.375199 -0.004496
			CHANNELS 3 Zrotation Yrotation Xrotation
			JOINT LeftFoot
			{
				OFFSET -0.013596 -0.397961 -0.043693
				CHANNELS 3 Zrotation Yrotation Xrotation
				JOINT LeftToe
				{
					OFFSET 0.026358 -0.055791 0.119288
					CHANNELS 3 Zrotation Yrotation Xrotation
					End Site
					{
						OFFSET 0.000000 0.000000 0.000000
					}
				}
			}
		}
	}
	JOINT RightUpLeg
	{
		OFFSET -0.067670 -0.090522 -0.004320
		CHANNELS 3 Zrotation Yrotation Xrotation
		JOINT RightLeg
		{
			OFFSET -0.038290 -0.382569 -0.008850
			CHANNELS 3 Zrotation Yrotation Xrotation
			JOINT RightFoot
			{
				OFFSET 0.015774 -0.398415 -0.042312
				CHANNELS 3 Zrotation Yrotation Xrotation
				JOINT RightToe
				{
					OFFSET -0.025372 -0.048144 0.123348
					CHANNELS 3 Zrotation Yrotation Xrotation
					End Site
					{
						OFFSET 0.000000 0.000000 0.000000
					}
				}
			}
		}
	}
	JOINT Spine
	{
		OFFSET -0.002533 0.108963 -0.026696
		CHANNELS 3 Zrotation Yrotation Xrotation
		JOINT Spine1
		{
			OFFSET 0.005487 0.135180 0.001092
			CHANNELS 3 Zrotation Yrotation Xrotation
			JOINT Spine2
			{
				OFFSET 0.001457 0.052922 0.025425
				CHANNELS 3 Zrotation Yrotation Xrotation
				JOINT Neck
				{
					OFFSET -0.002778 0.213870 -0.042857
					CHANNELS 3 Zrotation Yrotation Xrotation
					JOINT Head
					{
						OFFSET 0.005152 0.064970 0.051349
						CHANNELS 3 Zrotation Yrotation Xrotation
						End Site
						{
							OFFSET 0.000000 0.000000 0.000000
						}
					}
				}
				JOINT LeftShoulder
				{
					OFFSET 0.078845 0.121749 -0.034090
					CHANNELS 3 Zrotation Yrotation Xrotation
					JOINT LeftArm
					{
						OFFSET 0.090977 0.030469 -0.008868
						CHANNELS 3 Zrotation Yrotation Xrotation
						JOINT LeftForeArm
						{
							OFFSET 0.259612 -0.012772 -0.027456
							CHANNELS 3 Zrotation Yrotation Xrotation
							JOINT LeftHand
							{
								OFFSET 0.249234 0.008986 -0.001171
								CHANNELS 3 Zrotation Yrotation Xrotation
								End Site
								{
									OFFSET 0.000000 0.000000 0.000000
								}
							}
						}
					}
				}
				JOINT RightShoulder
				{
					OFFSET -0.081759 0.118833 -0.038615
					CHANNELS 3 Zrotation Yrotation Xrotation
					JOINT RightArm
					{
						OFFSET -0.096012 0.032551 -0.009143
						CHANNELS 3 Zrotation Yrotation Xrotation
						JOINT RightForeArm
						{
							OFFSET -0.253742 -0.013329 -0.021401
							CHANNELS 3 Zrotation Yrotation Xrotation
							JOINT RightHand
							{
								OFFSET -0.255298 0.007772 -0.005559
								CHANNELS 3 Zrotation Yrotation Xrotation
								End Site
								{
									OFFSET 0.000000 0.000000 0.000000
								}
							}
						}
					}
				}
			}
		}
	}
}
MOTION
Frames: 9
Frame Time: 0.050000
0.000000 0.933282 0.000000 -1.017047 -22.963393 -2.393463 2.424444 -0.317899 -24.229782 -4.947620 1.333113 10.384988 9.484948 16.348939 21.924397 0.000000 0.000000 0.000000 4.600910 -0.983420 8.204266 0.981268 0.170378 4.894454 -5.821389 -14.770140 5.381359 0.000000 0.000000 0.000000 8.012595 -0.911054 10.964670 -5.830453 1.585722 -26.755442 2.396843 22.176449 27.044880 13.381664 -4.819447 -26.938342 0.000000 0.000000 0.000000 -13.335188 -5.361901 0.728719 -58.429673 -7.856759 -5.918337 -11.821084 -58.343760 9.330491 0.000000 0.000000 0.000000 17.480103 0.406009 0.801757 67.617847 24.593821 5.996666 10.916201 50.916016 9.962374 0.000000 0.000000 0.000000 
-0.012779 0.928611 0.033588 -1.970039 -25.215698 -2.664346 2.189700 -0.221068 -24.051417 -5.093151 0.937224 2.277190 5.705746 11.036027 26.714199 0.000000 0.000000 0.000000 5.196549 -1.227133 11.604465 0.197936 0.245661 4.765007 -4.773505 -12.182615 4.095091 0.000000 0.000000 0.000000 8.480147 -0.895011 10.895106 -5.427001 1.526542 -28.840311 5.928541 22.657580 30.982532 10.314320 -2.834853 -29.177357 0.000000 0.000000 0.000000 -15.548028 -4.452507 0.443112 -57.696591 -8.529066 -5.792039 -19.345436 -61.627822 15.181839 0.000000 0.000000 0.000000 16.038012 -0.154341 0.311444 69.930477 24.915509 6.422730 19.307587 53.126314 14.988437 0.000000 0.000000 0.000000 
-0.025875 0.922481 0.070833 -1.054743 -26.910713 -3.336278 0.007841 -0.729766 -22.522918 -3.082383 0.526842 0.083675 3.538910 8.359039 30.720244 0.000000 0.000000 0.000000 2.352996 -0.802722 14.090460 1.534885 0.241052 6.765682 -3.204728 -7.572641 1.259129 0.000000 0.000000 0.000000 8.150788 -0.839074 10.826853 -4.660511 1.360642 -29.432889 4.313401 23.678373 30.561724 11.158793 -3.754912 -26.974819 0.000000 0.000000 0.000000 -13.798828 -2.976675 -0.056052 -59.078577 -8.500555 -6.034877 -17.142565 -62.557923 14.273722 0.000000 0.000000 0.000000 18.040176 -0.360878 0.203198 69.485729 25.737094 6.630487 21.717636 53.130518 16.320469 0.000000 0.000000 0.000000 
-0.039353 0.918784 0.111299 -1.045879 -28.892703 -3.646421 -0.078347 -0.669348 -21.685163 -3.495565 0.695642 2.831381 1.802205 6.164116 31.571691 0.000000 0.000000 0.000000 1.276224 -0.504154 15.610043 1.187329 0.576243 10.417916 -1.937800 -4.535894 0.656693 0.000000 0.000000 0.000000 7.994270 -0.734460 9.647731 -3.204445 0.947575 -28.108302 3.970686 26.248152 30.999711 11.935196 -4.224446 -25.848115 0.000000 0.000000 0.000000 -12.274988 -2.240787 -0.439578 -60.631002 -11.446153 -4.780516 -14.637676 -62.465805 12.523362 0.000000 0.000000 0.000000 19.272561 -1.388749 -0.103234 70.194375 25.788017 6.834686 25.013734 54.440224 18.986263 0.000000 0.000000 0.000000 
-0.052334 0.919122 0.152331 -1.010052 -30.583757 -3.298330 -0.456689 -0.688894 -21.304800 -3.476522 0.870017 5.932515 0.429269 4.214156 30.639795 0.000000 0.000000 0.000000 0.218146 -0.180683 16.305967 0.514596 1.129352 14.468624 -0.246696 -1.315542 1.073723 0.000000 0.000000 0.000000 8.355300 -0.609440 7.725768 -3.935636 1.000853 -27.015416 4.458117 26.291490 30.678036 13.081882 -4.883143 -27.099735 0.000000 0.000000 0.000000 -12.443705 -3.727926 0.448744 -59.856336 -12.730968 -4.025773 -5.683180 -61.377829 7.166882 0.000000 0.000000 0.000000 20.757728 -1.185309 -0.291080 69.809129 25.110709 6.130825 27.959369 54.670255 20.446035 0.000000 0.000000 0.000000 
-0.064170 0.921473 0.190329 -1.326621 -30.316986 -2.867813 -0.948656 -0.849344 -20.359979 -3.334315 0.981338 8.202011 0.963026 4.337768 27.010373 0.000000 0.000000 0.000000 -0.131155 -0.195771 14.450929 0.824924 2.002047 21.064472 1.052542 -1.314587 4.491640 0.000000 0.000000 0.000000 8.360185 -0.617532 7.724711 -2.820859 0.822482 -27.437180 2.960814 25.770430 30.670889 14.517288 -5.833454 -27.216670 0.000000 0.000000 0.000000 -10.873623 -3.130715 0.371592 -60.808230 -14.796936 -3.062582 -3.882395 -58.890161 5.971293 0.000000 0.000000 0.000000 21.072387 -1.546782 -0.579556 69.430687 25.111543 5.951959 30.805490 54.872240 22.131027 0.000000 0.000000 0.000000 
-0.075498 0.927117 0.223468 -0.697883 -29.757108 -2.704359 -1.965976 -1.116086 -18.678483 -3.582649 1.054719 8.377816 1.055313 4.272126 25.248555 0.000000 0.000000 0.000000 -1.391974 -0.047460 11.751283 1.342534 2.777432 26.396428 2.968644 -1.273708 9.668776 0.000000 0.000000 0.000000 7.435048 -0.588726 7.512447 -2.918891 0.766927 -26.545696 2.753363 24.684783 29.187176 13.540500 -5.315761 -26.971172 0.000000 0.000000 0.000000 -11.747182 -4.966396 1.203013 -58.662915 -16.191393 -2.101746 -0.910008 -57.527622 4.052647 0.000000 0.000000 0.000000 20.850059 0.007414 0.076757 69.244816 24.034212 5.374442 30.625905 57.254321 22.811075 0.000000 0.000000 0.000000 
-0.087019 0.933100 0.252252 -0.969630 -28.489484 -2.098807 -2.156176 -1.191039 -17.546737 -3.696797 1.107735 9.080719 0.537522 3.634557 23.928043 0.000000 0.000000 0.000000 -0.695392 -0.230379 9.224433 0.985089 3.825648 31.330418 2.979005 -2.438873 11.803525 0.000000 0.000000 0.000000 7.299658 -0.584248 7.243737 -3.665613 0.966969 -26.283663 2.877874 22.582853 28.440765 12.365671 -5.202765 -24.765971 0.000000 0.000000 0.000000 -10.060123 -5.811542 1.817831 -59.941491 -17.904494 -1.058499 1.476876 -56.153922 2.913394 0.000000 0.000000 0.000000 20.341279 0.360694 -0.051430 69.251632 23.580870 5.140246 31.324508 57.236774 22.808503 0.000000 0.000000 0.000000 
-0.099082 0.937728 0.277567 -1.298389 -28.010765 -1.764496 -1.861249 -1.127194 -15.983493 -3.990297 1.196135 9.288855 0.383334 3.328984 22.719460 0.000000 0.000000 0.000000 -1.303004 -0.142972 7.864480 1.949433 3.966198 33.769803 1.709730 -4.470376 11.659907 0.000000 0.000000 0.000000 7.105962 -0.592012 7.301275 -3.913669 1.015274 -25.976571 2.968951 22.062533 28.430730 12.075217 -5.101769 -24.484701 0.000000 0.000000 0.000000 -9.841760 -6.874189 2.311745 -59.561644 -19.970289 0.043120 4.738195 -55.738286 1.173313 0.000000 0.000000 0.000000 20.837915 1.170480 0.360370 68.290381 23.889033 5.132279 30.588515 57.392526 22.366425 0.000000 0.000000 0.000000 
